<?xml version="1.0" encoding="utf-8"?>
<!-- Svg Vector Icons : http://www.onlinewebfonts.com/icon -->
<!DOCTYPE svg PUBLIC "-//W3C//DTD SVG 1.1//EN" "http://www.w3.org/Graphics/SVG/1.1/DTD/svg11.dtd">
<svg version="1.1" xmlns="http://www.w3.org/2000/svg" xmlns:xlink="http://www.w3.org/1999/xlink" x="0px" y="0px" viewBox="0 0 1000 1000" enable-background="new 0 0 1000 1000" xml:space="preserve">
<metadata> Svg Vector Icons : http://www.onlinewebfonts.com/icon </metadata>
<g><path d="M983.4,399.6L983.4,399.6h6.4c-0.4-1.5-0.5-2.6-0.9-3.5c-14.8-44.1-35-85.5-61-123.9c-48-71.6-109.8-128.1-185.4-169.3c-68.1-37.2-140.9-57.8-218.2-63c-37.9-2.6-75.8,0.2-113.3,6.8C351.2,57,294.8,77.3,242.8,108.2C137.8,170.3,64,259,19.9,372.5c-3.5,8.8-6.6,17.6-9.9,26.4v0.9c1.6,0,3.1-0.2,4.8-0.2H983.4z"/><path d="M983,440.1H306.3c-98.8,0-197.5,0-296.3,0V961c39.4,0,78.5,0,117.9,0c0.7,0,1.5-0.2,2.6-0.5V573.7h739.7v386.9H990V440.1H983z"/><path d="M505.5,640.3c0,0-4.2-3.7-11,0c0,0-119.9,114-111.1,174.8c0,0,3.8,64.1,67.4,92.3c0,0,91,43.9,152.5-48.3c0,0,32.8-49.4-3.8-104C599.4,755.1,563.7,692.1,505.5,640.3z"/></g>
</svg>